<svg id="visual" viewBox="0 0 540 960" width="540" height="960" xmlns="http://www.w3.org/2000/svg" xmlns:xlink="http://www.w3.org/1999/xlink" version="1.1"><g stroke-width="1" stroke-linejoin="bevel"><path d="M266 470L219 462L271 504Z" fill="#b21502" stroke="#b21502"></path><path d="M245 563L279 545L271 504Z" fill="#ec4002" stroke="#ec4002"></path><path d="M271 504L382 488L266 470Z" fill="#ff4e00" stroke="#ff4e00"></path><path d="M219 462L192 541L271 504Z" fill="#000000" stroke="#000000"></path><path d="M192 541L245 563L271 504Z" fill="#660000" stroke="#660000"></path><path d="M219 462L160 511L192 541Z" fill="#b21502" stroke="#b21502"></path><path d="M266 470L242 393L219 462Z" fill="#780000" stroke="#780000"></path><path d="M219 462L139 446L160 511Z" fill="#000000" stroke="#000000"></path><path d="M165 398L139 446L219 462Z" fill="#d83302" stroke="#d83302"></path><path d="M324 581L333 549L279 545Z" fill="#d83302" stroke="#d83302"></path><path d="M279 545L333 549L271 504Z" fill="#8b0000" stroke="#8b0000"></path><path d="M266 470L325 382L242 393Z" fill="#ec4002" stroke="#ec4002"></path><path d="M242 393L214 383L219 462Z" fill="#b21502" stroke="#b21502"></path><path d="M214 383L165 398L219 462Z" fill="#8b0000" stroke="#8b0000"></path><path d="M245 563L324 581L279 545Z" fill="#8b0000" stroke="#8b0000"></path><path d="M160 511L132 563L192 541Z" fill="#780000" stroke="#780000"></path><path d="M192 541L160 615L245 563Z" fill="#9f0000" stroke="#9f0000"></path><path d="M223 665L344 599L324 581Z" fill="#550000" stroke="#550000"></path><path d="M99 542L132 563L160 511Z" fill="#b21502" stroke="#b21502"></path><path d="M165 398L120 440L139 446Z" fill="#8b0000" stroke="#8b0000"></path><path d="M139 446L82 490L160 511Z" fill="#ff4e00" stroke="#ff4e00"></path><path d="M378 445L325 382L266 470Z" fill="#ff4e00" stroke="#ff4e00"></path><path d="M242 393L251 340L214 383Z" fill="#b21502" stroke="#b21502"></path><path d="M403 490L382 488L333 549Z" fill="#d83302" stroke="#d83302"></path><path d="M333 549L382 488L271 504Z" fill="#660000" stroke="#660000"></path><path d="M132 563L160 615L192 541Z" fill="#ec4002" stroke="#ec4002"></path><path d="M382 488L378 445L266 470Z" fill="#550000" stroke="#550000"></path><path d="M82 490L99 542L160 511Z" fill="#ff4e00" stroke="#ff4e00"></path><path d="M132 563L116 588L160 615Z" fill="#c52502" stroke="#c52502"></path><path d="M378 445L339 381L325 382Z" fill="#9f0000" stroke="#9f0000"></path><path d="M325 382L251 340L242 393Z" fill="#ec4002" stroke="#ec4002"></path><path d="M223 665L324 581L245 563Z" fill="#660000" stroke="#660000"></path><path d="M324 581L344 599L333 549Z" fill="#c52502" stroke="#c52502"></path><path d="M310 320L251 340L325 382Z" fill="#c52502" stroke="#c52502"></path><path d="M129 308L126 381L165 398Z" fill="#b21502" stroke="#b21502"></path><path d="M99 542L116 588L132 563Z" fill="#ff4e00" stroke="#ff4e00"></path><path d="M120 440L82 490L139 446Z" fill="#780000" stroke="#780000"></path><path d="M165 398L126 381L120 440Z" fill="#9f0000" stroke="#9f0000"></path><path d="M120 440L40 387L82 490Z" fill="#c52502" stroke="#c52502"></path><path d="M129 308L165 398L214 383Z" fill="#660000" stroke="#660000"></path><path d="M150 628L170 634L160 615Z" fill="#550000" stroke="#550000"></path><path d="M160 615L170 634L245 563Z" fill="#ec4002" stroke="#ec4002"></path><path d="M116 588L150 628L160 615Z" fill="#c52502" stroke="#c52502"></path><path d="M382 488L403 490L378 445Z" fill="#b21502" stroke="#b21502"></path><path d="M401 597L403 490L333 549Z" fill="#b21502" stroke="#b21502"></path><path d="M249 703L223 665L156 733Z" fill="#b21502" stroke="#b21502"></path><path d="M170 634L223 665L245 563Z" fill="#000000" stroke="#000000"></path><path d="M400 337L310 320L339 381Z" fill="#000000" stroke="#000000"></path><path d="M339 381L310 320L325 382Z" fill="#c52502" stroke="#c52502"></path><path d="M251 340L129 308L214 383Z" fill="#c52502" stroke="#c52502"></path><path d="M440 397L339 381L378 445Z" fill="#ff4e00" stroke="#ff4e00"></path><path d="M397 687L401 597L344 599Z" fill="#550000" stroke="#550000"></path><path d="M344 599L401 597L333 549Z" fill="#d83302" stroke="#d83302"></path><path d="M156 733L223 665L170 634Z" fill="#660000" stroke="#660000"></path><path d="M223 665L338 692L344 599Z" fill="#660000" stroke="#660000"></path><path d="M223 270L129 308L251 340Z" fill="#8b0000" stroke="#8b0000"></path><path d="M126 381L40 387L120 440Z" fill="#000000" stroke="#000000"></path><path d="M129 308L69 352L126 381Z" fill="#ff4e00" stroke="#ff4e00"></path><path d="M401 597L449 552L403 490Z" fill="#780000" stroke="#780000"></path><path d="M457 416L440 397L378 445Z" fill="#000000" stroke="#000000"></path><path d="M264 269L223 270L251 340Z" fill="#d83302" stroke="#d83302"></path><path d="M82 490L28 565L99 542Z" fill="#9f0000" stroke="#9f0000"></path><path d="M99 542L28 565L116 588Z" fill="#b21502" stroke="#b21502"></path><path d="M116 588L55 658L150 628Z" fill="#9f0000" stroke="#9f0000"></path><path d="M150 628L156 733L170 634Z" fill="#c52502" stroke="#c52502"></path><path d="M0 510L28 565L82 490Z" fill="#000000" stroke="#000000"></path><path d="M457 416L378 445L403 490Z" fill="#b21502" stroke="#b21502"></path><path d="M440 397L400 337L339 381Z" fill="#550000" stroke="#550000"></path><path d="M310 320L264 269L251 340Z" fill="#ff4e00" stroke="#ff4e00"></path><path d="M337 266L264 269L310 320Z" fill="#ec4002" stroke="#ec4002"></path><path d="M69 352L40 387L126 381Z" fill="#ec4002" stroke="#ec4002"></path><path d="M249 703L338 692L223 665Z" fill="#b21502" stroke="#b21502"></path><path d="M401 597L456 560L449 552Z" fill="#b21502" stroke="#b21502"></path><path d="M491 561L456 560L505 671Z" fill="#660000" stroke="#660000"></path><path d="M475 440L457 416L403 490Z" fill="#8b0000" stroke="#8b0000"></path><path d="M249 703L275 717L338 692Z" fill="#8b0000" stroke="#8b0000"></path><path d="M475 440L403 490L449 552Z" fill="#550000" stroke="#550000"></path><path d="M440 397L461 376L400 337Z" fill="#b21502" stroke="#b21502"></path><path d="M0 404L0 510L82 490Z" fill="#c52502" stroke="#c52502"></path><path d="M264 269L225 252L223 270Z" fill="#c52502" stroke="#c52502"></path><path d="M223 270L167 261L129 308Z" fill="#660000" stroke="#660000"></path><path d="M400 337L350 279L310 320Z" fill="#c52502" stroke="#c52502"></path><path d="M264 269L234 164L225 252Z" fill="#9f0000" stroke="#9f0000"></path><path d="M225 252L167 261L223 270Z" fill="#d83302" stroke="#d83302"></path><path d="M129 308L39 334L69 352Z" fill="#ec4002" stroke="#ec4002"></path><path d="M540 484L475 440L449 552Z" fill="#780000" stroke="#780000"></path><path d="M457 416L461 376L440 397Z" fill="#9f0000" stroke="#9f0000"></path><path d="M369 727L373 695L338 692Z" fill="#8b0000" stroke="#8b0000"></path><path d="M338 692L373 695L344 599Z" fill="#c52502" stroke="#c52502"></path><path d="M350 279L337 266L310 320Z" fill="#550000" stroke="#550000"></path><path d="M0 625L55 658L28 565Z" fill="#9f0000" stroke="#9f0000"></path><path d="M28 565L55 658L116 588Z" fill="#8b0000" stroke="#8b0000"></path><path d="M249 703L286 751L275 717Z" fill="#ff4e00" stroke="#ff4e00"></path><path d="M0 510L0 561L28 565Z" fill="#550000" stroke="#550000"></path><path d="M540 389L461 376L457 416Z" fill="#b21502" stroke="#b21502"></path><path d="M400 337L375 258L350 279Z" fill="#660000" stroke="#660000"></path><path d="M350 279L375 258L337 266Z" fill="#b21502" stroke="#b21502"></path><path d="M373 695L397 687L344 599Z" fill="#000000" stroke="#000000"></path><path d="M0 325L0 404L40 387Z" fill="#d83302" stroke="#d83302"></path><path d="M40 387L0 404L82 490Z" fill="#ff4e00" stroke="#ff4e00"></path><path d="M39 334L40 387L69 352Z" fill="#b21502" stroke="#b21502"></path><path d="M0 277L39 334L129 308Z" fill="#c52502" stroke="#c52502"></path><path d="M91 739L156 733L150 628Z" fill="#000000" stroke="#000000"></path><path d="M505 671L456 560L401 597Z" fill="#9f0000" stroke="#9f0000"></path><path d="M456 560L491 561L449 552Z" fill="#8b0000" stroke="#8b0000"></path><path d="M275 717L286 751L338 692Z" fill="#8b0000" stroke="#8b0000"></path><path d="M373 695L396 727L397 687Z" fill="#ec4002" stroke="#ec4002"></path><path d="M269 799L286 751L249 703Z" fill="#d83302" stroke="#d83302"></path><path d="M286 751L369 727L338 692Z" fill="#660000" stroke="#660000"></path><path d="M397 687L505 671L401 597Z" fill="#ec4002" stroke="#ec4002"></path><path d="M421 240L375 258L400 337Z" fill="#8b0000" stroke="#8b0000"></path><path d="M234 164L176 203L225 252Z" fill="#780000" stroke="#780000"></path><path d="M0 561L0 625L28 565Z" fill="#000000" stroke="#000000"></path><path d="M55 658L91 739L150 628Z" fill="#550000" stroke="#550000"></path><path d="M540 387L457 322L461 376Z" fill="#d83302" stroke="#d83302"></path><path d="M461 376L457 322L400 337Z" fill="#c52502" stroke="#c52502"></path><path d="M176 203L139 230L167 261Z" fill="#660000" stroke="#660000"></path><path d="M167 261L139 230L129 308Z" fill="#660000" stroke="#660000"></path><path d="M176 203L167 261L225 252Z" fill="#ff4e00" stroke="#ff4e00"></path><path d="M370 789L396 727L369 727Z" fill="#550000" stroke="#550000"></path><path d="M369 727L396 727L373 695Z" fill="#b21502" stroke="#b21502"></path><path d="M65 731L91 739L55 658Z" fill="#b21502" stroke="#b21502"></path><path d="M156 733L269 799L249 703Z" fill="#b21502" stroke="#b21502"></path><path d="M91 739L145 765L156 733Z" fill="#b21502" stroke="#b21502"></path><path d="M0 277L0 325L39 334Z" fill="#780000" stroke="#780000"></path><path d="M39 334L0 325L40 387Z" fill="#000000" stroke="#000000"></path><path d="M333 179L264 269L337 266Z" fill="#780000" stroke="#780000"></path><path d="M95 203L0 277L129 308Z" fill="#b21502" stroke="#b21502"></path><path d="M0 669L65 731L55 658Z" fill="#d83302" stroke="#d83302"></path><path d="M91 739L76 760L145 765Z" fill="#9f0000" stroke="#9f0000"></path><path d="M0 625L0 669L55 658Z" fill="#d83302" stroke="#d83302"></path><path d="M491 561L540 484L449 552Z" fill="#660000" stroke="#660000"></path><path d="M475 440L540 389L457 416Z" fill="#ff4e00" stroke="#ff4e00"></path><path d="M540 526L540 484L491 561Z" fill="#000000" stroke="#000000"></path><path d="M540 620L540 526L491 561Z" fill="#660000" stroke="#660000"></path><path d="M145 765L269 799L156 733Z" fill="#9f0000" stroke="#9f0000"></path><path d="M286 751L370 789L369 727Z" fill="#d83302" stroke="#d83302"></path><path d="M457 322L421 240L400 337Z" fill="#550000" stroke="#550000"></path><path d="M375 258L333 179L337 266Z" fill="#9f0000" stroke="#9f0000"></path><path d="M460 233L421 240L457 322Z" fill="#8b0000" stroke="#8b0000"></path><path d="M65 731L76 760L91 739Z" fill="#8b0000" stroke="#8b0000"></path><path d="M145 765L144 815L269 799Z" fill="#000000" stroke="#000000"></path><path d="M0 762L76 760L65 731Z" fill="#550000" stroke="#550000"></path><path d="M540 484L540 389L475 440Z" fill="#b21502" stroke="#b21502"></path><path d="M540 389L540 387L461 376Z" fill="#ec4002" stroke="#ec4002"></path><path d="M95 203L129 308L139 230Z" fill="#d83302" stroke="#d83302"></path><path d="M467 730L397 687L396 727Z" fill="#780000" stroke="#780000"></path><path d="M467 730L505 671L397 687Z" fill="#660000" stroke="#660000"></path><path d="M176 203L95 203L139 230Z" fill="#d83302" stroke="#d83302"></path><path d="M269 799L370 789L286 751Z" fill="#c52502" stroke="#c52502"></path><path d="M421 240L333 179L375 258Z" fill="#550000" stroke="#550000"></path><path d="M140 142L89 191L95 203Z" fill="#c52502" stroke="#c52502"></path><path d="M333 179L234 164L264 269Z" fill="#ff4e00" stroke="#ff4e00"></path><path d="M505 671L540 620L491 561Z" fill="#660000" stroke="#660000"></path><path d="M453 776L467 730L396 727Z" fill="#8b0000" stroke="#8b0000"></path><path d="M505 671L540 674L540 620Z" fill="#ff4e00" stroke="#ff4e00"></path><path d="M140 142L95 203L176 203Z" fill="#000000" stroke="#000000"></path><path d="M95 203L0 211L0 277Z" fill="#c52502" stroke="#c52502"></path><path d="M540 387L502 284L457 322Z" fill="#d83302" stroke="#d83302"></path><path d="M421 240L396 143L333 179Z" fill="#550000" stroke="#550000"></path><path d="M76 760L113 804L145 765Z" fill="#ff4e00" stroke="#ff4e00"></path><path d="M113 804L144 815L145 765Z" fill="#780000" stroke="#780000"></path><path d="M269 799L328 842L370 789Z" fill="#ff4e00" stroke="#ff4e00"></path><path d="M211 139L197 157L234 164Z" fill="#d83302" stroke="#d83302"></path><path d="M234 164L197 157L176 203Z" fill="#ec4002" stroke="#ec4002"></path><path d="M502 284L460 233L457 322Z" fill="#b21502" stroke="#b21502"></path><path d="M0 669L0 735L65 731Z" fill="#780000" stroke="#780000"></path><path d="M76 760L46 800L113 804Z" fill="#c52502" stroke="#c52502"></path><path d="M460 233L445 212L421 240Z" fill="#b21502" stroke="#b21502"></path><path d="M424 150L445 212L448 126Z" fill="#780000" stroke="#780000"></path><path d="M540 736L540 674L505 671Z" fill="#9f0000" stroke="#9f0000"></path><path d="M242 82L211 139L234 164Z" fill="#c52502" stroke="#c52502"></path><path d="M197 157L140 142L176 203Z" fill="#9f0000" stroke="#9f0000"></path><path d="M334 102L234 164L333 179Z" fill="#660000" stroke="#660000"></path><path d="M144 815L246 845L269 799Z" fill="#d83302" stroke="#d83302"></path><path d="M412 803L453 776L396 727Z" fill="#ff4e00" stroke="#ff4e00"></path><path d="M467 730L540 736L505 671Z" fill="#ec4002" stroke="#ec4002"></path><path d="M412 803L396 727L370 789Z" fill="#ec4002" stroke="#ec4002"></path><path d="M328 842L412 803L370 789Z" fill="#d83302" stroke="#d83302"></path><path d="M0 735L0 762L65 731Z" fill="#660000" stroke="#660000"></path><path d="M246 845L328 842L269 799Z" fill="#000000" stroke="#000000"></path><path d="M169 97L140 142L197 157Z" fill="#ff4e00" stroke="#ff4e00"></path><path d="M113 804L52 863L144 815Z" fill="#c52502" stroke="#c52502"></path><path d="M144 815L209 864L246 845Z" fill="#ff4e00" stroke="#ff4e00"></path><path d="M0 762L46 800L76 760Z" fill="#000000" stroke="#000000"></path><path d="M540 387L540 285L502 284Z" fill="#8b0000" stroke="#8b0000"></path><path d="M502 284L540 232L460 233Z" fill="#9f0000" stroke="#9f0000"></path><path d="M89 191L0 211L95 203Z" fill="#ec4002" stroke="#ec4002"></path><path d="M0 202L0 211L89 191Z" fill="#d83302" stroke="#d83302"></path><path d="M147 909L209 864L144 815Z" fill="#780000" stroke="#780000"></path><path d="M246 845L320 878L328 842Z" fill="#8b0000" stroke="#8b0000"></path><path d="M50 148L0 202L89 191Z" fill="#9f0000" stroke="#9f0000"></path><path d="M424 150L396 143L445 212Z" fill="#b21502" stroke="#b21502"></path><path d="M445 212L396 143L421 240Z" fill="#000000" stroke="#000000"></path><path d="M501 794L467 730L453 776Z" fill="#c52502" stroke="#c52502"></path><path d="M501 794L540 736L467 730Z" fill="#c52502" stroke="#c52502"></path><path d="M519 151L445 212L460 233Z" fill="#000000" stroke="#000000"></path><path d="M140 142L50 148L89 191Z" fill="#000000" stroke="#000000"></path><path d="M328 842L395 884L412 803Z" fill="#ff4e00" stroke="#ff4e00"></path><path d="M464 861L501 794L453 776Z" fill="#780000" stroke="#780000"></path><path d="M255 889L320 878L246 845Z" fill="#780000" stroke="#780000"></path><path d="M0 762L0 810L46 800Z" fill="#780000" stroke="#780000"></path><path d="M46 800L52 863L113 804Z" fill="#b21502" stroke="#b21502"></path><path d="M265 898L192 960L279 960Z" fill="#b21502" stroke="#b21502"></path><path d="M209 864L255 889L246 845Z" fill="#b21502" stroke="#b21502"></path><path d="M540 285L540 232L502 284Z" fill="#550000" stroke="#550000"></path><path d="M211 139L169 97L197 157Z" fill="#b21502" stroke="#b21502"></path><path d="M140 142L124 54L50 148Z" fill="#b21502" stroke="#b21502"></path><path d="M195 73L169 97L211 139Z" fill="#b21502" stroke="#b21502"></path><path d="M464 861L453 776L412 803Z" fill="#9f0000" stroke="#9f0000"></path><path d="M397 81L334 102L396 143Z" fill="#c52502" stroke="#c52502"></path><path d="M396 143L334 102L333 179Z" fill="#9f0000" stroke="#9f0000"></path><path d="M192 960L255 889L209 864Z" fill="#b21502" stroke="#b21502"></path><path d="M255 889L265 898L320 878Z" fill="#550000" stroke="#550000"></path><path d="M334 102L242 82L234 164Z" fill="#ff4e00" stroke="#ff4e00"></path><path d="M25 25L24 141L50 148Z" fill="#b21502" stroke="#b21502"></path><path d="M50 148L24 141L0 202Z" fill="#c52502" stroke="#c52502"></path><path d="M0 810L52 863L46 800Z" fill="#ff4e00" stroke="#ff4e00"></path><path d="M242 82L195 73L211 139Z" fill="#ff4e00" stroke="#ff4e00"></path><path d="M169 97L124 54L140 142Z" fill="#ff4e00" stroke="#ff4e00"></path><path d="M424 150L448 126L396 143Z" fill="#b21502" stroke="#b21502"></path><path d="M334 102L324 57L242 82Z" fill="#ff4e00" stroke="#ff4e00"></path><path d="M519 151L448 126L445 212Z" fill="#550000" stroke="#550000"></path><path d="M371 960L395 884L320 878Z" fill="#b21502" stroke="#b21502"></path><path d="M320 878L395 884L328 842Z" fill="#660000" stroke="#660000"></path><path d="M0 31L0 142L24 141Z" fill="#000000" stroke="#000000"></path><path d="M24 141L0 142L0 202Z" fill="#ec4002" stroke="#ec4002"></path><path d="M52 863L147 909L144 815Z" fill="#660000" stroke="#660000"></path><path d="M395 884L464 861L412 803Z" fill="#660000" stroke="#660000"></path><path d="M501 794L540 806L540 736Z" fill="#550000" stroke="#550000"></path><path d="M540 840L540 806L501 794Z" fill="#9f0000" stroke="#9f0000"></path><path d="M448 126L397 81L396 143Z" fill="#550000" stroke="#550000"></path><path d="M242 82L210 0L195 73Z" fill="#000000" stroke="#000000"></path><path d="M540 232L519 151L460 233Z" fill="#ec4002" stroke="#ec4002"></path><path d="M420 71L396 66L397 81Z" fill="#000000" stroke="#000000"></path><path d="M396 66L324 57L334 102Z" fill="#660000" stroke="#660000"></path><path d="M395 884L456 882L464 861Z" fill="#550000" stroke="#550000"></path><path d="M464 861L540 840L501 794Z" fill="#780000" stroke="#780000"></path><path d="M414 960L456 882L395 884Z" fill="#780000" stroke="#780000"></path><path d="M299 960L320 878L265 898Z" fill="#550000" stroke="#550000"></path><path d="M52 863L141 928L147 909Z" fill="#780000" stroke="#780000"></path><path d="M147 909L192 960L209 864Z" fill="#000000" stroke="#000000"></path><path d="M195 73L124 54L169 97Z" fill="#000000" stroke="#000000"></path><path d="M189 0L124 54L195 73Z" fill="#c52502" stroke="#c52502"></path><path d="M540 232L540 153L519 151Z" fill="#780000" stroke="#780000"></path><path d="M420 71L397 81L448 126Z" fill="#9f0000" stroke="#9f0000"></path><path d="M397 81L396 66L334 102Z" fill="#c52502" stroke="#c52502"></path><path d="M420 71L448 126L483 46Z" fill="#780000" stroke="#780000"></path><path d="M540 112L448 126L519 151Z" fill="#8b0000" stroke="#8b0000"></path><path d="M540 886L540 840L464 861Z" fill="#ec4002" stroke="#ec4002"></path><path d="M0 810L0 895L52 863Z" fill="#d83302" stroke="#d83302"></path><path d="M52 863L98 960L141 928Z" fill="#b21502" stroke="#b21502"></path><path d="M192 960L265 898L255 889Z" fill="#8b0000" stroke="#8b0000"></path><path d="M141 928L192 960L147 909Z" fill="#660000" stroke="#660000"></path><path d="M150 960L192 960L141 928Z" fill="#ff4e00" stroke="#ff4e00"></path><path d="M279 960L299 960L265 898Z" fill="#550000" stroke="#550000"></path><path d="M98 960L150 960L141 928Z" fill="#b21502" stroke="#b21502"></path><path d="M540 153L540 112L519 151Z" fill="#000000" stroke="#000000"></path><path d="M299 960L371 960L320 878Z" fill="#550000" stroke="#550000"></path><path d="M504 920L540 886L464 861Z" fill="#780000" stroke="#780000"></path><path d="M0 895L98 960L52 863Z" fill="#b21502" stroke="#b21502"></path><path d="M316 0L324 57L329 0Z" fill="#780000" stroke="#780000"></path><path d="M316 0L242 82L324 57Z" fill="#ec4002" stroke="#ec4002"></path><path d="M316 0L210 0L242 82Z" fill="#8b0000" stroke="#8b0000"></path><path d="M210 0L189 0L195 73Z" fill="#780000" stroke="#780000"></path><path d="M124 54L25 25L50 148Z" fill="#660000" stroke="#660000"></path><path d="M504 920L464 861L456 882Z" fill="#c52502" stroke="#c52502"></path><path d="M329 0L324 57L396 0Z" fill="#c52502" stroke="#c52502"></path><path d="M324 57L396 66L396 0Z" fill="#780000" stroke="#780000"></path><path d="M396 0L396 66L420 71Z" fill="#ff4e00" stroke="#ff4e00"></path><path d="M371 960L414 960L395 884Z" fill="#ec4002" stroke="#ec4002"></path><path d="M494 960L504 920L456 882Z" fill="#d83302" stroke="#d83302"></path><path d="M540 112L483 46L448 126Z" fill="#c52502" stroke="#c52502"></path><path d="M189 0L103 0L124 54Z" fill="#d83302" stroke="#d83302"></path><path d="M84 0L25 25L124 54Z" fill="#550000" stroke="#550000"></path><path d="M103 0L84 0L124 54Z" fill="#ff4e00" stroke="#ff4e00"></path><path d="M483 46L396 0L420 71Z" fill="#780000" stroke="#780000"></path><path d="M0 0L0 31L25 25Z" fill="#c52502" stroke="#c52502"></path><path d="M25 25L0 31L24 141Z" fill="#d83302" stroke="#d83302"></path><path d="M540 112L540 63L483 46Z" fill="#550000" stroke="#550000"></path><path d="M483 46L511 0L396 0Z" fill="#780000" stroke="#780000"></path><path d="M0 895L0 960L98 960Z" fill="#550000" stroke="#550000"></path><path d="M414 960L494 960L456 882Z" fill="#b21502" stroke="#b21502"></path><path d="M504 920L540 960L540 886Z" fill="#d83302" stroke="#d83302"></path><path d="M84 0L0 0L25 25Z" fill="#9f0000" stroke="#9f0000"></path><path d="M494 960L540 960L504 920Z" fill="#550000" stroke="#550000"></path><path d="M540 63L511 0L483 46Z" fill="#b21502" stroke="#b21502"></path><path d="M540 63L540 0L511 0Z" fill="#ec4002" stroke="#ec4002"></path></g></svg>